HIERARCHY
ROOT hip
{
  OFFSET 0 0 0
  CHANNELS 6 Xposition Yposition Zposition Zrotation Yrotation Xrotation
  JOINT abdomen
  {
    OFFSET 0 20.6881 -0.73152
    CHANNELS 3 Zrotation Xrotation Yrotation
    JOINT chest
    {
      OFFSET 0 11.7043 -0.48768
      CHANNELS 3 Zrotation Xrotation Yrotation
      JOINT neck
      {
        OFFSET 0 22.1894 -2.19456
        CHANNELS 3 Zrotation Xrotation Yrotation
        JOINT head
        {
          OFFSET -0.24384 7.07133 1.2192
          CHANNELS 3 Zrotation Xrotation Yrotation
          JOINT leftEye
          {
            OFFSET 4.14528 8.04674 8.04672
            CHANNELS 3 Zrotation Xrotation Yrotation
            End Site
            {
              OFFSET 1 0 0
            }
          }
          JOINT rightEye
          {
            OFFSET -3.6576 8.04674 8.04672
            CHANNELS 3 Zrotation Xrotation Yrotation
            End Site
            {
              OFFSET 1 0 0
            }
          }
        }
      }
      JOINT rCollar
      {
        OFFSET -2.68224 19.2634 -4.8768
        CHANNELS 3 Zrotation Xrotation Yrotation
        JOINT rShldr
        {
          OFFSET -8.77824 -1.95073 1.46304
          CHANNELS 3 Zrotation Xrotation Yrotation
          JOINT rForeArm
          {
            OFFSET -28.1742 -1.7115 0.48768
            CHANNELS 3 Zrotation Xrotation Yrotation
            JOINT rHand
            {
              OFFSET -22.5879 0.773209 7.07136
              CHANNELS 3 Zrotation Xrotation Yrotation
              JOINT rThumb1
              {
                OFFSET -1.2192 -0.487915 3.41376
                CHANNELS 3 Zrotation Xrotation Yrotation
                JOINT rThumb2
                {
                  OFFSET -3.37035 -0.52449 3.41376
                  CHANNELS 3 Zrotation Xrotation Yrotation
                  End Site
                  {
                    OFFSET -1.78271 -1.18214 1.43049
                  }
                }
              }
              JOINT rIndex1
              {
                OFFSET -7.75947 0.938293 5.60832
                CHANNELS 3 Zrotation Xrotation Yrotation
                JOINT rIndex2
                {
                  OFFSET -2.54057 -0.884171 1.56538
                  CHANNELS 3 Zrotation Xrotation Yrotation
                  End Site
                  {
                    OFFSET -1.62519 -0.234802 1.16502
                  }
                }
              }
              JOINT rMid1
              {
                OFFSET -8.24714 1.18213 3.41376
                CHANNELS 3 Zrotation Xrotation Yrotation
                JOINT rMid2
                {
                  OFFSET -3.10165 -0.590103 1.0647
                  CHANNELS 3 Zrotation Xrotation Yrotation
                  End Site
                  {
                    OFFSET -2.48547 -0.328903 0.83742
                  }
                }
              }
              JOINT rRing1
              {
                OFFSET -8.82822 0.546677 1.51678
                CHANNELS 3 Zrotation Xrotation Yrotation
                JOINT rRing2
                {
                  OFFSET -2.60934 -0.819778 -0.0198488
                  CHANNELS 3 Zrotation Xrotation Yrotation
                  End Site
                  {
                    OFFSET -2.33842 -0.294052 0.168128
                  }
                }
              }
              JOINT rPinky1
              {
                OFFSET -8.27202 -0.0477905 -0.4584
                CHANNELS 3 Zrotation Xrotation Yrotation
                JOINT rPinky2
                {
                  OFFSET -1.82734 -0.647385 -0.700984
                  CHANNELS 3 Zrotation Xrotation Yrotation
                  End Site
                  {
                    OFFSET -1.69225 -0.51767 -0.607171
                  }
                }
              }
            }
          }
        }
      }
      JOINT lCollar
      {
        OFFSET 2.68224 19.2634 -4.8768
        CHANNELS 3 Zrotation Xrotation Yrotation
        JOINT lShldr
        {
          OFFSET 8.77824 -1.95073 1.46304
          CHANNELS 3 Zrotation Xrotation Yrotation
          JOINT lForeArm
          {
            OFFSET 28.1742 -1.7115 0.48768
            CHANNELS 3 Zrotation Xrotation Yrotation
            JOINT lHand
            {
              OFFSET 22.5879 0.773209 7.07136
              CHANNELS 3 Zrotation Xrotation Yrotation
              JOINT lThumb1
              {
                OFFSET 1.2192 -0.487915 3.41376
                CHANNELS 3 Zrotation Xrotation Yrotation
                JOINT lThumb2
                {
                  OFFSET 3.37035 -0.52449 3.41376
                  CHANNELS 3 Zrotation Xrotation Yrotation
                  End Site
                  {
                    OFFSET 1.78271 -1.18214 1.43049
                  }
                }
              }
              JOINT lIndex1
              {
                OFFSET 7.75947 0.938293 5.60832
                CHANNELS 3 Zrotation Xrotation Yrotation
                JOINT lIndex2
                {
                  OFFSET 2.54057 -0.884171 1.56538
                  CHANNELS 3 Zrotation Xrotation Yrotation
                  End Site
                  {
                    OFFSET 1.62519 -0.234802 1.16502
                  }
                }
              }
              JOINT lMid1
              {
                OFFSET 8.24714 1.18213 3.41376
                CHANNELS 3 Zrotation Xrotation Yrotation
                JOINT lMid2
                {
                  OFFSET 3.10165 -0.590103 1.0647
                  CHANNELS 3 Zrotation Xrotation Yrotation
                  End Site
                  {
                    OFFSET 2.48547 -0.328903 0.83742
                  }
                }
              }
              JOINT lRing1
              {
                OFFSET 8.82822 0.546677 1.51678
                CHANNELS 3 Zrotation Xrotation Yrotation
                JOINT lRing2
                {
                  OFFSET 2.60934 -0.819778 -0.0198488
                  CHANNELS 3 Zrotation Xrotation Yrotation
                  End Site
                  {
                    OFFSET 2.33842 -0.294052 0.168128
                  }
                }
              }
              JOINT lPinky1
              {
                OFFSET 8.27202 -0.0477905 -0.4584
                CHANNELS 3 Zrotation Xrotation Yrotation
                JOINT lPinky2
                {
                  OFFSET 1.82734 -0.647385 -0.700984
                  CHANNELS 3 Zrotation Xrotation Yrotation
                  End Site
                  {
                    OFFSET 1.69225 -0.51767 -0.607171
                  }
                }
              }
            }
          }
        }
      }
    }
  }
  JOINT rButtock
  {
    OFFSET -8.77824 4.35084 1.2192
    CHANNELS 3 Zrotation Xrotation Yrotation
    JOINT rThigh
    {
      OFFSET 0 -1.70687 -2.19456
      CHANNELS 3 Zrotation Xrotation Yrotation
      JOINT rShin
      {
        OFFSET 0 -36.8199 0.73152
        CHANNELS 3 Zrotation Xrotation Yrotation
        JOINT rFoot
        {
          OFFSET 0.73152 -45.1104 -5.12064
          CHANNELS 3 Zrotation Xrotation Yrotation
          End Site
          {
            OFFSET -1.1221 -3.69964 12.103
          }
        }
      }
    }
  }
  JOINT lButtock
  {
    OFFSET 8.77824 4.35084 1.2192
    CHANNELS 3 Zrotation Xrotation Yrotation
    JOINT lThigh
    {
      OFFSET 0 -1.70687 -2.19456
      CHANNELS 3 Zrotation Xrotation Yrotation
      JOINT lShin
      {
        OFFSET 0 -36.8199 0.73152
        CHANNELS 3 Zrotation Xrotation Yrotation
        JOINT lFoot
        {
          OFFSET -0.73152 -45.1104 -5.12064
          CHANNELS 3 Zrotation Xrotation Yrotation
          End Site
          {
            OFFSET 1.1221 -3.69964 12.103
          }
        }
      }
    }
  }
}
MOTION
Frames:	9
Frame Time:	0.00833333
-9.58212 82.8764 39.3835 -11.0562 4.118 18.0081 -7.3578 15.5567 1.42076 -3.89842 -16.1772 -0.269153 5.39939 -0.733708 1.87305 -2.40324 -19.5928 1.76579 -0.0 0.0 0.0 -0.0 0.0 0.0 -4.28563e-13 3.43489e-13 -6.66923e-14 28.4423 27.837 76.1301 -27.8756 -29.9161 67.1147 -0.543354 -20.4744 -3.00795 -1.02059e-09 2.91797e-09 -3.98049e-09 -1.70667e-09 5.13795e-09 -6.89107e-09 -1.02059e-09 2.91796e-09 -3.98051e-09 7.73091 5.47488 0.417314 -1.02059e-09 2.91796e-09 -3.9805e-09 2.90554 0.965183 0.102902 -1.02058e-09 2.91796e-09 -3.9805e-09 10.2786 0.731801 0.0259123 -1.0206e-09 2.91796e-09 -3.98049e-09 2.22167 -0.733487 -0.20892 -4.28575e-13 3.43512e-13 -6.6891e-14 -34.9436 7.23256 -82.1764 27.4643 -28.0351 -64.12 1.63876 -33.7774 5.39398 2.90933e-09 -5.43371e-09 2.31321e-09 4.95063e-09 -9.2262e-09 4.07165e-09 2.90932e-09 -5.43371e-09 2.31321e-09 -7.73091 5.47488 -0.417314 2.90933e-09 -5.43371e-09 2.31321e-09 -2.90554 0.965183 -0.102902 2.90932e-09 -5.4337e-09 2.3132e-09 -10.2786 0.731801 -0.0259123 2.90933e-09 -5.43371e-09 2.3132e-09 -2.22167 -0.733487 0.20892 -2.03217e-16 0.0 -3.88251e-19 10.6956 -18.4939 19.0111 -0.015341 -0.927948 -0.0831085 -2.84288 -1.35241 -20.1459 2.03217e-16 0.0 3.88251e-19 6.46576 -22.3404 -44.7407 -0.00145912 13.0939 -0.191835 13.0679 -12.5631 54.0731
-9.43457 82.8684 39.7935 -10.8646 4.3275 17.0942 -6.75129 14.3545 1.32693 -3.49988 -16.2342 -0.223667 5.17302 -0.408725 1.48372 -3.09491 -18.3399 0.978012 -0.0 0.0 0.0 -0.0 0.0 0.0 -3.49311e-13 2.79171e-13 -1.12663e-14 29.8434 27.178 74.1218 -28.0842 -31.0902 68.9545 -0.523221 -20.1107 -2.94978 -9.9439e-10 1.98401e-09 -2.99508e-09 -1.67554e-09 3.50597e-09 -5.18916e-09 -9.94387e-10 1.98401e-09 -2.9951e-09 7.73091 5.47488 0.417314 -9.9439e-10 1.984e-09 -2.99508e-09 2.90554 0.965183 0.102902 -9.94385e-10 1.984e-09 -2.99509e-09 10.2786 0.731801 0.0259123 -9.94397e-10 1.984e-09 -2.99508e-09 2.22167 -0.733487 -0.20892 -3.49308e-13 2.79198e-13 -1.14798e-14 -32.0295 7.48951 -84.1622 27.6147 -28.6851 -65.2387 1.5663 -33.1375 5.26371 2.58387e-09 -4.738e-09 2.18355e-09 4.39529e-09 -8.04027e-09 3.83764e-09 2.58387e-09 -4.738e-09 2.18356e-09 -7.73091 5.47488 -0.417314 2.58387e-09 -4.738e-09 2.18356e-09 -2.90554 0.965183 -0.102902 2.58386e-09 -4.738e-09 2.18355e-09 -10.2786 0.731801 -0.0259123 2.58387e-09 -4.738e-09 2.18354e-09 -2.22167 -0.733487 0.20892 -2.03217e-16 0.0 -3.88251e-19 10.3076 -17.4004 18.9034 -0.0129197 -0.852941 -0.0616316 -3.03764 -1.71469 -20.4602 2.03217e-16 0.0 3.88251e-19 6.27374 -21.5467 -43.2603 -0.00511177 13.1221 -0.230429 11.5175 -11.8179 52.2301
-9.2493 82.855 40.2071 -10.5726 4.6784 16.2268 -6.17459 13.0776 1.27673 -2.92806 -16.1129 -0.138408 4.80212 0.0607701 1.08768 -3.83986 -17.2483 0.23548 -0.0 0.0 0.0 -0.0 0.0 0.0 -2.29087e-13 1.59585e-13 5.7455e-14 30.8931 26.26 72.1311 -28.2433 -32.3029 70.8986 -0.504273 -19.7637 -2.8945 -7.17223e-10 7.13054e-10 -1.33054e-09 -1.22044e-09 1.27193e-09 -2.31029e-09 -7.17216e-10 7.13061e-10 -1.33056e-09 7.73091 5.47488 0.417314 -7.17222e-10 7.1305e-10 -1.33054e-09 2.90554 0.965183 0.102902 -7.17218e-10 7.13049e-10 -1.33054e-09 10.2786 0.731801 0.0259123 -7.17229e-10 7.1305e-10 -1.33054e-09 2.22167 -0.733487 -0.20892 -2.2907e-13 1.59614e-13 5.72189e-14 -29.4031 7.38703 -86.3038 27.737 -29.2443 -66.1237 1.48657 -32.4051 5.1172 1.74596e-09 -2.91763e-09 1.67583e-09 2.96736e-09 -4.94084e-09 2.93738e-09 1.74596e-09 -2.91763e-09 1.67583e-09 -7.73091 5.47488 -0.417314 1.74597e-09 -2.91763e-09 1.67583e-09 -2.90554 0.965183 -0.102902 1.74596e-09 -2.91763e-09 1.67582e-09 -10.2786 0.731801 -0.0259123 1.74596e-09 -2.91763e-09 1.67582e-09 -2.22167 -0.733487 0.20892 -2.03217e-16 0.0 -3.88251e-19 9.90511 -16.2744 18.8311 -0.0105275 -0.79801 -0.0410316 -3.24698 -2.07752 -20.8679 2.03217e-16 0.0 3.88251e-19 6.05015 -20.7751 -41.8926 -0.00632851 13.2044 -0.253013 10.2754 -11.2485 50.4099
-9.0491 82.8303 40.6373 -10.2394 4.9801 15.3722 -5.61797 11.7357 1.21585 -2.31345 -15.9313 -0.0511671 4.4375 0.614188 0.698953 -4.64789 -16.2243 -0.477385 -0.0 0.0 0.0 -0.0 0.0 0.0 -9.92291e-14 3.45467e-14 1.22545e-13 31.7633 25.2318 70.1809 -28.3518 -33.522 72.8992 -0.488987 -19.4777 -2.84911 -3.54752e-10 -5.13435e-10 3.94561e-10 -6.18623e-10 -8.88e-10 6.74557e-10 -3.54741e-10 -5.13423e-10 3.94543e-10 7.73091 5.47488 0.417314 -3.54751e-10 -5.13438e-10 3.94557e-10 2.90554 0.965183 0.102902 -3.54748e-10 -5.1344e-10 3.94557e-10 10.2786 0.731801 0.0259123 -3.54757e-10 -5.1344e-10 3.94566e-10 2.22167 -0.733487 -0.20892 -9.92004e-14 3.45753e-14 1.22293e-13 -27.02 7.0193 -88.2017 27.8442 -29.7612 -66.895 1.41912 -31.7543 4.98956 7.78257e-10 -8.71546e-10 1.07408e-09 1.31803e-09 -1.45792e-09 1.87158e-09 7.78255e-10 -8.71544e-10 1.07408e-09 -7.73091 5.47488 -0.417314 7.78259e-10 -8.71542e-10 1.07408e-09 -2.90554 0.965183 -0.102902 7.78253e-10 -8.71542e-10 1.07408e-09 -10.2786 0.731801 -0.0259123 7.78259e-10 -8.71542e-10 1.07407e-09 -2.22167 -0.733487 0.20892 -2.03217e-16 0.0 -3.88251e-19 9.52583 -15.1538 18.8109 -0.0081889 -0.768252 -0.021148 -3.47041 -2.45236 -21.3454 2.03217e-16 0.0 3.88251e-19 5.80745 -20.0039 -40.7027 -0.00629953 13.2944 -0.265016 9.28292 -10.7882 48.7321
-8.86691 82.8021 41.0785 -9.9563 5.2051 14.5635 -5.07677 10.3383 1.09103 -1.78559 -15.8072 0.000537872 4.22781 1.19088 0.331472 -5.52236 -15.174 -1.17397 -0.0 0.0 0.0 -0.0 0.0 0.0 8.92819e-15 -4.61312e-14 1.67079e-13 32.6478 24.2421 68.2481 -28.4178 -34.7288 74.8973 -0.479591 -19.2965 -2.8205 -7.26423e-11 -1.314e-09 1.56165e-09 -1.4736e-10 -2.29767e-09 2.69438e-09 -7.263e-11 -1.31399e-09 1.56163e-09 7.73091 5.47488 0.417314 -7.26419e-11 -1.31401e-09 1.56164e-09 2.90554 0.965183 0.102902 -7.26385e-11 -1.31401e-09 1.56164e-09 10.2786 0.731801 0.0259123 -7.26467e-11 -1.31401e-09 1.56165e-09 2.22167 -0.733487 -0.20892 8.96286e-15 -4.61041e-14 1.6683e-13 -24.8098 6.74332 -89.7078 27.9406 -30.2694 -67.6787 1.38 -31.3594 4.9134 6.33956e-11 5.01303e-10 6.62366e-10 9.84903e-11 8.78431e-10 1.14094e-09 6.33936e-11 5.01305e-10 6.6237e-10 -7.73091 5.47488 -0.417314 6.33976e-11 5.01307e-10 6.6237e-10 -2.90554 0.965183 -0.102902 6.33934e-11 5.01306e-10 6.62366e-10 -10.2786 0.731801 -0.0259123 6.33994e-11 5.01307e-10 6.62357e-10 -2.22167 -0.733487 0.20892 -2.03217e-16 0.0 -3.88251e-19 9.20582 -14.0767 18.8586 -0.00592342 -0.768767 -0.00182034 -3.70728 -2.85073 -21.8693 2.03217e-16 0.0 3.88251e-19 5.56015 -19.2148 -39.7569 -0.00625698 13.3455 -0.271854 8.48489 -10.3714 47.3239
-8.70272 82.7752 41.5145 -9.7674 5.4737 13.8474 -4.53231 8.86333 0.889717 -1.38198 -15.7587 0.00637938 4.24871 1.83529 -0.0128707 -6.54904 -14.1241 -1.87967 -0.0 0.0 0.0 -0.0 0.0 0.0 8.47242e-14 -6.56574e-14 1.88692e-13 33.5797 23.3003 66.3183 -28.4288 -35.9059 76.885 -0.477949 -19.2628 -2.81522 8.55691e-11 -1.49799e-09 1.98779e-09 1.20802e-10 -2.62186e-09 3.43275e-09 8.55798e-11 -1.49797e-09 1.98777e-09 7.73091 5.47488 0.417314 8.55691e-11 -1.49799e-09 1.98778e-09 2.90554 0.965183 0.102902 8.55728e-11 -1.49799e-09 1.98778e-09 10.2786 0.731801 0.0259123 8.5564e-11 -1.49799e-09 1.98779e-09 2.22167 -0.733487 -0.20892 8.47603e-14 -6.5633e-14 1.88483e-13 -22.765 6.78694 -91.1486 28.0246 -30.7662 -68.4844 1.37668 -31.3214 4.90632 -2.80535e-10 9.38095e-10 5.19033e-10 -4.90109e-10 1.62098e-09 8.83938e-10 -2.80537e-10 9.38096e-10 5.19038e-10 -7.73091 5.47488 -0.417314 -2.80534e-10 9.38097e-10 5.19034e-10 -2.90554 0.965183 -0.102902 -2.80536e-10 9.38096e-10 5.19033e-10 -10.2786 0.731801 -0.0259123 -2.80531e-10 9.38098e-10 5.19023e-10 -2.22167 -0.733487 0.20892 -2.03217e-16 0.0 -3.88251e-19 8.96528 -13.0416 18.9963 -0.00371034 -0.808787 0.0170182 -3.9637 -3.28651 -22.4503 2.03217e-16 0.0 3.88251e-19 5.34582 -18.4116 -39.101 -0.00641681 13.3421 -0.27225 7.90568 -10.0487 46.2534
-8.54766 82.7533 41.956 -9.6434 5.8105 13.1886 -4.00045 7.31368 0.640768 -1.03236 -15.7272 -0.0134729 4.41035 2.55945 -0.341115 -7.70059 -13.1082 -2.58202 -0.0 0.0 0.0 -0.0 0.0 0.0 1.45639e-13 -5.17684e-14 1.95697e-13 34.4639 22.3294 64.385 -28.378 -37.081 78.9152 -0.482095 -19.3429 -2.82785 2.08023e-10 -1.29847e-09 2.00888e-09 3.33274e-10 -2.27283e-09 3.47114e-09 2.08031e-10 -1.29846e-09 2.00886e-09 7.73091 5.47488 0.417314 2.08023e-10 -1.29847e-09 2.00888e-09 2.90554 0.965183 0.102902 2.08027e-10 -1.29847e-09 2.00888e-09 10.2786 0.731801 0.0259123 2.08017e-10 -1.29847e-09 2.00889e-09 2.22167 -0.733487 -0.20892 1.45674e-13 -5.17483e-14 1.95551e-13 -20.8936 6.92182 -92.8308 28.0984 -31.2436 -69.2504 1.39752 -31.5292 4.94651 -4.62963e-10 9.25969e-10 4.91719e-10 -8.04234e-10 1.59882e-09 8.31878e-10 -4.62965e-10 9.2597e-10 4.91725e-10 -7.73091 5.47488 -0.417314 -4.62962e-10 9.25969e-10 4.91717e-10 -2.90554 0.965183 -0.102902 -4.62962e-10 9.25969e-10 4.91718e-10 -10.2786 0.731801 -0.0259123 -4.62957e-10 9.2597e-10 4.91709e-10 -2.22167 -0.733487 0.20892 -2.03217e-16 0.0 -3.88251e-19 8.77469 -12.0339 19.2072 -0.00149018 -0.88297 0.0352748 -4.24174 -3.74803 -23.096 2.03217e-16 0.0 3.88251e-19 5.16709 -17.6249 -38.683 -0.00618892 13.31 -0.264216 7.53335 -9.87491 45.4335
-8.38682 82.7334 42.398 -9.5218 6.1906 12.5846 -3.5313 5.73634 0.353241 -0.703971 -15.7165 -0.0506163 4.6094 3.25409 -0.652701 -8.80573 -12.0433 -3.23633 -0.0 0.0 0.0 -0.0 0.0 0.0 2.02549e-13 -2.1442e-14 1.87175e-13 35.3134 21.3392 62.404 -28.2798 -38.3099 81.027 -0.488522 -19.4663 -2.84736 3.26573e-10 -9.69643e-10 1.7846e-09 5.42736e-10 -1.69561e-09 3.08542e-09 3.26576e-10 -9.69642e-10 1.78458e-09 7.73091 5.47488 0.417314 3.26572e-10 -9.69646e-10 1.7846e-09 2.90554 0.965183 0.102902 3.26577e-10 -9.69646e-10 1.78459e-09 10.2786 0.731801 0.0259123 3.26565e-10 -9.69645e-10 1.7846e-09 2.22167 -0.733487 -0.20892 2.02574e-13 -2.1427e-14 1.87091e-13 -19.1306 6.96837 -94.7022 28.1651 -31.7161 -70.0026 1.429 -31.8395 5.0068 -5.92506e-10 6.9092e-10 5.18413e-10 -1.02913e-09 1.19644e-09 8.7473e-10 -5.92509e-10 6.9092e-10 5.18421e-10 -7.73091 5.47488 -0.417314 -5.92506e-10 6.90918e-10 5.18408e-10 -2.90554 0.965183 -0.102902 -5.92506e-10 6.90918e-10 5.1841e-10 -10.2786 0.731801 -0.0259123 -5.92501e-10 6.90919e-10 5.18403e-10 -2.22167 -0.733487 0.20892 -2.03217e-16 0.0 -3.88251e-19 8.59758 -11.0717 19.4483 0.000761319 -0.974548 0.0528708 -4.53316 -4.20909 -23.7781 2.03217e-16 0.0 3.88251e-19 4.98399 -16.8737 -38.4241 -0.00558219 13.265 -0.252104 7.26998 -9.77736 44.7639
-8.21613 82.7156 42.8281 -9.3688 6.6022 12.0799 -3.17323 4.17835 0.0357107 -0.364135 -15.7304 -0.096664 4.74012 3.80998 -0.946893 -9.69287 -10.8466 -3.79814 -0.0 0.0 0.0 -0.0 0.0 0.0 2.66327e-13 8.34391e-15 1.62208e-13 36.1386 20.3309 60.33 -28.1333 -39.642 83.2826 -0.49362 -19.5631 -2.86268 4.73069e-10 -7.65693e-10 1.4746e-09 8.01868e-10 -1.33527e-09 2.55144e-09 4.73071e-10 -7.65696e-10 1.47458e-09 7.73091 5.47488 0.417314 4.73068e-10 -7.65697e-10 1.4746e-09 2.90554 0.965183 0.102902 4.73074e-10 -7.65696e-10 1.4746e-09 10.2786 0.731801 0.0259123 4.73061e-10 -7.65694e-10 1.47461e-09 2.22167 -0.733487 -0.20892 2.66334e-13 8.354e-15 1.62159e-13 -17.4215 6.9203 -96.5654 28.2261 -32.1956 -70.7689 1.45685 -32.1086 5.05951 -7.77787e-10 4.5894e-10 5.37103e-10 -1.35004e-09 7.98342e-10 9.02464e-10 -7.7779e-10 4.58939e-10 5.37113e-10 -7.73091 5.47488 -0.417314 -7.77787e-10 4.58937e-10 5.37097e-10 -2.90554 0.965183 -0.102902 -7.77787e-10 4.58937e-10 5.37101e-10 -10.2786 0.731801 -0.0259123 -7.77781e-10 4.58938e-10 5.37094e-10 -2.22167 -0.733487 0.20892 -2.03217e-16 0.0 -3.88251e-19 8.40081 -10.1724 19.6767 0.00304585 -1.06675 0.0697268 -4.82768 -4.64437 -24.4679 2.03217e-16 0.0 3.88251e-19 4.75153 -16.1722 -38.2465 -0.00462057 13.2224 -0.240265 7.02531 -9.67395 44.1469
